<svg xmlns="http://www.w3.org/2000/svg" xmlns:xlink="http://www.w3.org/1999/xlink" width="500" zoomAndPan="magnify" viewBox="0 0 375 374.999991" height="500" preserveAspectRatio="xMidYMid meet" version="1.0"><defs><g/><clipPath id="1338ca4f91"><path d="M 8 104 L 161 104 L 161 217 L 8 217 Z M 8 104 " clip-rule="nonzero"/></clipPath><clipPath id="4eb390d56a"><path d="M 0 121.054688 L 119.054688 65.800781 L 173.359375 182.8125 L 54.308594 238.066406 Z M 0 121.054688 " clip-rule="nonzero"/></clipPath><clipPath id="5a0c1f19ce"><path d="M 0 121.054688 L 119.054688 65.800781 L 173.359375 182.8125 L 54.308594 238.066406 Z M 0 121.054688 " clip-rule="nonzero"/></clipPath><clipPath id="3d649fe94b"><path d="M 108.5 127.445312 C 108.507812 127.460938 111.457031 132.53125 113.792969 132.777344 C 114.007812 132.800781 114.183594 132.929688 114.273438 133.109375 C 114.320312 133.195312 117.992188 140.203125 109.101562 147.382812 C 108.835938 147.59375 108.453125 147.550781 108.242188 147.289062 C 108.203125 147.242188 108.175781 147.191406 108.152344 147.136719 C 107.808594 146.425781 101.035156 133.085938 82.316406 147.433594 C 82.214844 147.511719 82.097656 147.554688 81.976562 147.558594 C 81.886719 147.566406 50.253906 148.785156 47.464844 179.5625 C 47.433594 179.898438 47.136719 180.148438 46.800781 180.117188 C 46.519531 180.09375 46.296875 179.878906 46.253906 179.613281 C 46.085938 178.90625 43.777344 168.367188 51.144531 158.085938 C 45.65625 161.113281 32.921875 169.535156 33.625 182.179688 C 33.644531 182.515625 33.386719 182.804688 33.050781 182.824219 C 32.773438 182.839844 32.527344 182.667969 32.4375 182.417969 C 32.417969 182.351562 24.984375 162.070312 51.773438 145.007812 C 43.382812 148.988281 30.777344 156.96875 24.257812 170.941406 C 24.117188 171.246094 23.753906 171.378906 23.449219 171.234375 C 23.21875 171.128906 23.085938 170.894531 23.097656 170.652344 C 23.097656 170.597656 23.710938 153.488281 42.429688 141.550781 C 36.148438 144.214844 27.390625 148.800781 20.769531 155.691406 C 20.539062 155.933594 20.152344 155.941406 19.90625 155.707031 C 19.691406 155.496094 19.660156 155.164062 19.828125 154.921875 C 19.859375 154.871094 30.949219 138.238281 49.617188 132.574219 C 40.851562 131.394531 16.3125 127.355469 8.785156 118.339844 C 8.570312 118.082031 8.605469 117.695312 8.863281 117.476562 C 9.023438 117.347656 9.226562 117.308594 9.410156 117.355469 C 9.503906 117.378906 40.339844 125.546875 60.6875 124.335938 C 55.40625 122.140625 43.070312 116.121094 35.734375 105.273438 C 35.546875 104.996094 35.621094 104.613281 35.898438 104.425781 C 36.121094 104.277344 36.40625 104.292969 36.609375 104.445312 C 37.414062 105.007812 64.609375 123.839844 88.253906 123.089844 C 88.273438 123.089844 88.292969 123.089844 88.3125 123.089844 C 88.328125 123.089844 94.453125 123.417969 90.546875 127.183594 C 88.140625 129.503906 79.28125 128.78125 75.402344 128.335938 C 77.941406 130.46875 83.914062 134.054688 90.621094 127.976562 C 92.230469 126.515625 94.453125 127 97.167969 127.585938 C 100.183594 128.242188 103.863281 129.042969 107.710938 127.203125 C 108 127.066406 108.34375 127.175781 108.5 127.445312 Z M 145.347656 147.964844 C 135.398438 148.851562 129.265625 150.78125 126.949219 153.75 C 142.691406 156.078125 142.335938 145.789062 160.421875 154.101562 C 135.574219 148.546875 142.070312 165.5 126.160156 158.535156 C 123.496094 157.425781 121.085938 157.121094 119.984375 158.378906 C 116.171875 162.746094 131.761719 165.933594 144.816406 162.792969 C 109.949219 173.542969 120.933594 152.671875 105.152344 152.785156 C 113.722656 150.019531 120.785156 155.492188 128.207031 148.160156 C 125.050781 149.636719 121.9375 150.242188 118.875 149.976562 C 127.339844 145.015625 136.164062 144.347656 145.347656 147.964844 Z M 76.613281 151.761719 C 76.964844 152.429688 82.632812 162.96875 92.433594 164.03125 C 88.488281 161.402344 80.867188 154.75 87.898438 145.914062 C 88.105469 145.652344 88.492188 145.609375 88.753906 145.820312 C 88.929688 145.957031 89.007812 146.171875 88.980469 146.378906 C 88.972656 146.425781 86.441406 163.539062 103.914062 160.578125 C 104.246094 160.523438 104.5625 160.746094 104.617188 161.078125 C 104.625 161.121094 104.628906 161.164062 104.628906 161.207031 C 104.625 161.242188 104.28125 173.144531 87.816406 176.15625 C 87.484375 176.21875 87.164062 176 87.105469 175.667969 C 87.082031 175.535156 87.101562 175.40625 87.15625 175.292969 L 89 170.878906 C 87.171875 170.199219 81.402344 168.269531 78.039062 169.710938 C 77.726562 169.84375 77.371094 169.699219 77.234375 169.390625 C 77.171875 169.242188 77.171875 169.078125 77.222656 168.9375 C 77.226562 168.921875 78.503906 165.414062 81.027344 164.242188 C 78.230469 163.296875 73.316406 162.257812 69.914062 165.007812 C 69.648438 165.21875 69.265625 165.175781 69.054688 164.910156 C 68.960938 164.792969 68.914062 164.648438 68.921875 164.507812 C 68.917969 164.230469 68.957031 162.046875 70.304688 160.160156 C 65.078125 162.65625 56.453125 170.089844 60.550781 191.496094 C 60.554688 191.507812 60.554688 191.519531 60.558594 191.527344 C 61.308594 195.144531 66.679688 204.15625 77.140625 209.828125 C 83.695312 213.382812 92.242188 215.601562 102.894531 214.332031 C 103.230469 214.292969 103.535156 214.53125 103.574219 214.867188 C 103.613281 215.175781 103.410156 215.460938 103.113281 215.53125 L 103.113281 215.535156 C 102.996094 215.5625 62.9375 225.785156 52.726562 191.804688 C 52.722656 191.785156 52.714844 191.765625 52.710938 191.742188 C 52.683594 191.613281 52.644531 191.445312 52.597656 191.238281 C 49.4375 176.796875 54.558594 167 60.824219 160.730469 C 67.066406 154.480469 74.484375 151.742188 75.882812 151.421875 L 75.886719 151.417969 L 75.917969 151.410156 C 76.210938 151.34375 76.5 151.5 76.613281 151.761719 Z M 76.613281 151.761719 " clip-rule="nonzero"/></clipPath><linearGradient x1="8786.359007" gradientTransform="matrix(0.0180342, -0.00836998, 0.00836998, 0.0180342, 0.00979417, 121.074977)" y1="6313.874746" x2="-2069.980163" gradientUnits="userSpaceOnUse" y2="-178.091444" id="06c321fceb"><stop stop-opacity="1" stop-color="rgb(76.899719%, 23.498535%, 11.799622%)" offset="0"/><stop stop-opacity="1" stop-color="rgb(76.899719%, 23.498535%, 11.799622%)" offset="0.25"/><stop stop-opacity="1" stop-color="rgb(76.899719%, 23.498535%, 11.799622%)" offset="0.28125"/><stop stop-opacity="1" stop-color="rgb(76.899719%, 23.498535%, 11.799622%)" offset="0.296875"/><stop stop-opacity="1" stop-color="rgb(76.672363%, 23.498535%, 11.711121%)" offset="0.300781"/><stop stop-opacity="1" stop-color="rgb(76.446533%, 23.498535%, 11.624146%)" offset="0.304688"/><stop stop-opacity="1" stop-color="rgb(76.13678%, 23.498535%, 11.505127%)" offset="0.308594"/><stop stop-opacity="1" stop-color="rgb(75.828552%, 23.498535%, 11.386108%)" offset="0.3125"/><stop stop-opacity="1" stop-color="rgb(75.520325%, 23.498535%, 11.26709%)" offset="0.316406"/><stop stop-opacity="1" stop-color="rgb(75.212097%, 23.498535%, 11.148071%)" offset="0.320312"/><stop stop-opacity="1" stop-color="rgb(74.902344%, 23.498535%, 11.029053%)" offset="0.324219"/><stop stop-opacity="1" stop-color="rgb(74.594116%, 23.498535%, 10.910034%)" offset="0.328125"/><stop stop-opacity="1" stop-color="rgb(74.284363%, 23.498535%, 10.791016%)" offset="0.332031"/><stop stop-opacity="1" stop-color="rgb(73.976135%, 23.498535%, 10.671997%)" offset="0.335938"/><stop stop-opacity="1" stop-color="rgb(73.667908%, 23.498535%, 10.552979%)" offset="0.339844"/><stop stop-opacity="1" stop-color="rgb(73.35968%, 23.498535%, 10.43396%)" offset="0.34375"/><stop stop-opacity="1" stop-color="rgb(73.049927%, 23.498535%, 10.314941%)" offset="0.347656"/><stop stop-opacity="1" stop-color="rgb(72.741699%, 23.498535%, 10.195923%)" offset="0.351562"/><stop stop-opacity="1" stop-color="rgb(72.431946%, 23.498535%, 10.076904%)" offset="0.355469"/><stop stop-opacity="1" stop-color="rgb(72.123718%, 23.498535%, 9.957886%)" offset="0.359375"/><stop stop-opacity="1" stop-color="rgb(71.815491%, 23.498535%, 9.838867%)" offset="0.363281"/><stop stop-opacity="1" stop-color="rgb(71.507263%, 23.498535%, 9.719849%)" offset="0.367187"/><stop stop-opacity="1" stop-color="rgb(71.19751%, 23.498535%, 9.60083%)" offset="0.371094"/><stop stop-opacity="1" stop-color="rgb(70.889282%, 23.498535%, 9.481812%)" offset="0.375"/><stop stop-opacity="1" stop-color="rgb(70.579529%, 23.498535%, 9.362793%)" offset="0.378906"/><stop stop-opacity="1" stop-color="rgb(70.271301%, 23.498535%, 9.243774%)" offset="0.382812"/><stop stop-opacity="1" stop-color="rgb(69.963074%, 23.498535%, 9.124756%)" offset="0.386719"/><stop stop-opacity="1" stop-color="rgb(69.654846%, 23.498535%, 9.005737%)" offset="0.390625"/><stop stop-opacity="1" stop-color="rgb(69.345093%, 23.498535%, 8.886719%)" offset="0.394531"/><stop stop-opacity="1" stop-color="rgb(69.036865%, 23.498535%, 8.7677%)" offset="0.398438"/><stop stop-opacity="1" stop-color="rgb(68.727112%, 23.498535%, 8.648682%)" offset="0.402344"/><stop stop-opacity="1" stop-color="rgb(68.418884%, 23.498535%, 8.529663%)" offset="0.40625"/><stop stop-opacity="1" stop-color="rgb(68.110657%, 23.498535%, 8.410645%)" offset="0.410156"/><stop stop-opacity="1" stop-color="rgb(67.802429%, 23.498535%, 8.291626%)" offset="0.414062"/><stop stop-opacity="1" stop-color="rgb(67.492676%, 23.498535%, 8.172607%)" offset="0.417969"/><stop stop-opacity="1" stop-color="rgb(67.184448%, 23.498535%, 8.053589%)" offset="0.421875"/><stop stop-opacity="1" stop-color="rgb(66.874695%, 23.498535%, 7.93457%)" offset="0.425781"/><stop stop-opacity="1" stop-color="rgb(66.566467%, 23.498535%, 7.815552%)" offset="0.429687"/><stop stop-opacity="1" stop-color="rgb(66.256714%, 23.498535%, 7.695007%)" offset="0.433594"/><stop stop-opacity="1" stop-color="rgb(65.948486%, 23.498535%, 7.575989%)" offset="0.4375"/><stop stop-opacity="1" stop-color="rgb(65.640259%, 23.498535%, 7.45697%)" offset="0.441406"/><stop stop-opacity="1" stop-color="rgb(65.332031%, 23.498535%, 7.337952%)" offset="0.445312"/><stop stop-opacity="1" stop-color="rgb(65.022278%, 23.498535%, 7.218933%)" offset="0.449219"/><stop stop-opacity="1" stop-color="rgb(64.71405%, 23.498535%, 7.099915%)" offset="0.453125"/><stop stop-opacity="1" stop-color="rgb(64.404297%, 23.498535%, 6.980896%)" offset="0.457031"/><stop stop-opacity="1" stop-color="rgb(64.096069%, 23.498535%, 6.861877%)" offset="0.460937"/><stop stop-opacity="1" stop-color="rgb(63.787842%, 23.498535%, 6.742859%)" offset="0.464844"/><stop stop-opacity="1" stop-color="rgb(63.479614%, 23.498535%, 6.62384%)" offset="0.46875"/><stop stop-opacity="1" stop-color="rgb(63.169861%, 23.498535%, 6.504822%)" offset="0.472656"/><stop stop-opacity="1" stop-color="rgb(62.861633%, 23.498535%, 6.385803%)" offset="0.476562"/><stop stop-opacity="1" stop-color="rgb(62.55188%, 23.498535%, 6.266785%)" offset="0.480469"/><stop stop-opacity="1" stop-color="rgb(62.243652%, 23.498535%, 6.147766%)" offset="0.484375"/><stop stop-opacity="1" stop-color="rgb(61.935425%, 23.498535%, 6.028748%)" offset="0.488281"/><stop stop-opacity="1" stop-color="rgb(61.627197%, 23.498535%, 5.909729%)" offset="0.492187"/><stop stop-opacity="1" stop-color="rgb(61.317444%, 23.498535%, 5.79071%)" offset="0.496094"/><stop stop-opacity="1" stop-color="rgb(61.009216%, 23.498535%, 5.671692%)" offset="0.5"/><stop stop-opacity="1" stop-color="rgb(60.699463%, 23.498535%, 5.552673%)" offset="0.503906"/><stop stop-opacity="1" stop-color="rgb(60.391235%, 23.498535%, 5.433655%)" offset="0.507812"/><stop stop-opacity="1" stop-color="rgb(60.083008%, 23.498535%, 5.314636%)" offset="0.511719"/><stop stop-opacity="1" stop-color="rgb(59.77478%, 23.498535%, 5.195618%)" offset="0.515625"/><stop stop-opacity="1" stop-color="rgb(59.465027%, 23.498535%, 5.076599%)" offset="0.519531"/><stop stop-opacity="1" stop-color="rgb(59.156799%, 23.498535%, 4.957581%)" offset="0.523438"/><stop stop-opacity="1" stop-color="rgb(58.847046%, 23.498535%, 4.838562%)" offset="0.527344"/><stop stop-opacity="1" stop-color="rgb(58.538818%, 23.498535%, 4.719543%)" offset="0.53125"/><stop stop-opacity="1" stop-color="rgb(58.230591%, 23.498535%, 4.600525%)" offset="0.535156"/><stop stop-opacity="1" stop-color="rgb(57.922363%, 23.498535%, 4.481506%)" offset="0.539062"/><stop stop-opacity="1" stop-color="rgb(57.61261%, 23.498535%, 4.362488%)" offset="0.542969"/><stop stop-opacity="1" stop-color="rgb(57.304382%, 23.498535%, 4.243469%)" offset="0.546875"/><stop stop-opacity="1" stop-color="rgb(56.994629%, 23.498535%, 4.124451%)" offset="0.550781"/><stop stop-opacity="1" stop-color="rgb(56.686401%, 23.498535%, 4.005432%)" offset="0.554688"/><stop stop-opacity="1" stop-color="rgb(56.378174%, 23.498535%, 3.886414%)" offset="0.558594"/><stop stop-opacity="1" stop-color="rgb(56.069946%, 23.498535%, 3.767395%)" offset="0.5625"/><stop stop-opacity="1" stop-color="rgb(55.760193%, 23.498535%, 3.648376%)" offset="0.566406"/><stop stop-opacity="1" stop-color="rgb(55.451965%, 23.498535%, 3.529358%)" offset="0.570312"/><stop stop-opacity="1" stop-color="rgb(55.142212%, 23.498535%, 3.408813%)" offset="0.574219"/><stop stop-opacity="1" stop-color="rgb(54.833984%, 23.498535%, 3.289795%)" offset="0.578125"/><stop stop-opacity="1" stop-color="rgb(54.524231%, 23.498535%, 3.170776%)" offset="0.582031"/><stop stop-opacity="1" stop-color="rgb(54.216003%, 23.498535%, 3.051758%)" offset="0.585937"/><stop stop-opacity="1" stop-color="rgb(53.907776%, 23.498535%, 2.932739%)" offset="0.589844"/><stop stop-opacity="1" stop-color="rgb(53.599548%, 23.498535%, 2.813721%)" offset="0.59375"/><stop stop-opacity="1" stop-color="rgb(53.289795%, 23.498535%, 2.694702%)" offset="0.597656"/><stop stop-opacity="1" stop-color="rgb(52.981567%, 23.498535%, 2.575684%)" offset="0.601562"/><stop stop-opacity="1" stop-color="rgb(52.671814%, 23.498535%, 2.456665%)" offset="0.605469"/><stop stop-opacity="1" stop-color="rgb(52.363586%, 23.498535%, 2.337646%)" offset="0.609375"/><stop stop-opacity="1" stop-color="rgb(52.055359%, 23.498535%, 2.218628%)" offset="0.613281"/><stop stop-opacity="1" stop-color="rgb(51.747131%, 23.498535%, 2.099609%)" offset="0.617188"/><stop stop-opacity="1" stop-color="rgb(51.437378%, 23.498535%, 1.980591%)" offset="0.621094"/><stop stop-opacity="1" stop-color="rgb(51.12915%, 23.498535%, 1.861572%)" offset="0.625"/><stop stop-opacity="1" stop-color="rgb(50.819397%, 23.498535%, 1.742554%)" offset="0.628906"/><stop stop-opacity="1" stop-color="rgb(50.511169%, 23.498535%, 1.623535%)" offset="0.632812"/><stop stop-opacity="1" stop-color="rgb(50.202942%, 23.498535%, 1.504517%)" offset="0.636719"/><stop stop-opacity="1" stop-color="rgb(49.894714%, 23.498535%, 1.385498%)" offset="0.640625"/><stop stop-opacity="1" stop-color="rgb(49.584961%, 23.498535%, 1.266479%)" offset="0.644531"/><stop stop-opacity="1" stop-color="rgb(49.276733%, 23.498535%, 1.147461%)" offset="0.648438"/><stop stop-opacity="1" stop-color="rgb(48.96698%, 23.498535%, 1.028442%)" offset="0.652344"/><stop stop-opacity="1" stop-color="rgb(48.658752%, 23.498535%, 0.909424%)" offset="0.65625"/><stop stop-opacity="1" stop-color="rgb(48.350525%, 23.498535%, 0.790405%)" offset="0.660156"/><stop stop-opacity="1" stop-color="rgb(48.042297%, 23.498535%, 0.671387%)" offset="0.664062"/><stop stop-opacity="1" stop-color="rgb(47.732544%, 23.498535%, 0.552368%)" offset="0.667969"/><stop stop-opacity="1" stop-color="rgb(47.424316%, 23.498535%, 0.43335%)" offset="0.671875"/><stop stop-opacity="1" stop-color="rgb(47.114563%, 23.498535%, 0.314331%)" offset="0.675781"/><stop stop-opacity="1" stop-color="rgb(46.806335%, 23.498535%, 0.195312%)" offset="0.679688"/><stop stop-opacity="1" stop-color="rgb(46.55304%, 23.498535%, 0.0976562%)" offset="0.683594"/><stop stop-opacity="1" stop-color="rgb(46.299744%, 23.498535%, 0%)" offset="0.6875"/><stop stop-opacity="1" stop-color="rgb(46.299744%, 23.498535%, 0%)" offset="0.75"/><stop stop-opacity="1" stop-color="rgb(46.299744%, 23.498535%, 0%)" offset="1"/></linearGradient></defs><g clip-path="url(#1338ca4f91)"><g clip-path="url(#4eb390d56a)"><g clip-path="url(#5a0c1f19ce)"><g clip-path="url(#3d649fe94b)"><path fill="url(#06c321fceb)" d="M -37.828125 125.8125 L 35.484375 283.769531 L 206.820312 204.25 L 133.511719 46.289062 Z M -37.828125 125.8125 " fill-rule="nonzero"/></g></g></g></g><g fill="#763c00" fill-opacity="1"><g transform="translate(94.171207, 200.996295)"><g><path d="M 6.65625 -28.921875 C 8.769531 -30.859375 10.378906 -31.828125 11.484375 -31.828125 C 12.585938 -31.828125 14.195312 -30.859375 16.3125 -28.921875 C 18.425781 -26.984375 19.738281 -25.390625 20.25 -24.140625 C 20.582031 -23.273438 20.75 -21.320312 20.75 -18.28125 L 20.75 0 L 14.578125 0 L 14.578125 -6.703125 L 8.40625 -6.703125 L 8.40625 0 L 2.234375 0 L 2.234375 -18.28125 C 2.234375 -21.320312 2.398438 -23.273438 2.734375 -24.140625 C 3.234375 -25.390625 4.539062 -26.984375 6.65625 -28.921875 Z M 8.40625 -18.28125 L 8.40625 -12.0625 L 14.578125 -12.0625 L 14.578125 -18.28125 C 14.578125 -20.726562 14.457031 -22.226562 14.21875 -22.78125 C 13.976562 -23.332031 13.566406 -23.910156 12.984375 -24.515625 C 12.398438 -25.128906 11.898438 -25.4375 11.484375 -25.4375 C 11.066406 -25.4375 10.566406 -25.128906 9.984375 -24.515625 C 9.410156 -23.910156 9.003906 -23.332031 8.765625 -22.78125 C 8.523438 -22.226562 8.40625 -20.726562 8.40625 -18.28125 Z M 8.40625 -18.28125 "/></g></g></g><g fill="#763c00" fill-opacity="1"><g transform="translate(122.014751, 200.996295)"><g><path d="M 13.859375 0 L 13.859375 -22.75 C 13.859375 -23.257812 13.757812 -23.6875 13.5625 -24.03125 C 13.375 -24.375 13.054688 -24.769531 12.609375 -25.21875 C 12.160156 -25.664062 11.800781 -25.890625 11.53125 -25.890625 C 10.9375 -25.890625 10.148438 -25.289062 9.171875 -24.09375 C 9.253906 -23.351562 9.296875 -22.5625 9.296875 -21.71875 L 9.296875 0 L 3.125 0 L 3.125 -19.140625 C 3.125 -21.671875 2.953125 -23.441406 2.609375 -24.453125 C 2.265625 -25.460938 1.546875 -26.671875 0.453125 -28.078125 L 5.8125 -31.828125 C 6.757812 -31.140625 7.445312 -30.320312 7.875 -29.375 C 10.019531 -31.007812 11.535156 -31.828125 12.421875 -31.828125 C 13.316406 -31.828125 15.003906 -30.679688 17.484375 -28.390625 C 19.953125 -30.679688 21.691406 -31.828125 22.703125 -31.828125 C 23.453125 -31.828125 24.726562 -31.046875 26.53125 -29.484375 C 28.332031 -27.921875 29.457031 -26.816406 29.90625 -26.171875 C 30.351562 -25.535156 30.578125 -24.691406 30.578125 -23.640625 L 30.578125 0 L 24.40625 0 L 24.40625 -22.75 C 24.40625 -23.320312 24.300781 -23.765625 24.09375 -24.078125 C 23.882812 -24.390625 23.535156 -24.769531 23.046875 -25.21875 C 22.554688 -25.664062 22.125 -25.890625 21.75 -25.890625 C 21.375 -25.890625 20.785156 -25.394531 19.984375 -24.40625 C 20.015625 -24.257812 20.03125 -24.003906 20.03125 -23.640625 L 20.03125 0 Z M 13.859375 0 "/></g></g></g><g fill="#763c00" fill-opacity="1"><g transform="translate(159.690521, 200.996295)"><g><path d="M 11.3125 -15.15625 L 12.203125 -15.15625 C 12.765625 -15.15625 13.425781 -15.429688 14.1875 -15.984375 C 14.945312 -16.535156 15.429688 -17.140625 15.640625 -17.796875 C 15.847656 -18.453125 15.953125 -19.328125 15.953125 -20.421875 C 15.953125 -21.523438 15.847656 -22.441406 15.640625 -23.171875 C 15.429688 -23.910156 14.945312 -24.546875 14.1875 -25.078125 C 13.425781 -25.617188 12.695312 -25.890625 12 -25.890625 C 11.300781 -25.890625 10.359375 -25.5 9.171875 -24.71875 C 9.253906 -23.738281 9.296875 -22.738281 9.296875 -21.71875 L 9.296875 0 L 3.125 0 L 3.125 -19.140625 C 3.125 -21.640625 2.953125 -23.398438 2.609375 -24.421875 C 2.265625 -25.453125 1.546875 -26.65625 0.453125 -28.03125 L 5.8125 -31.828125 C 6.582031 -31.296875 7.269531 -30.414062 7.875 -29.1875 C 10.3125 -30.945312 12.050781 -31.828125 13.09375 -31.828125 C 14.132812 -31.828125 15.578125 -30.992188 17.421875 -29.328125 C 19.273438 -27.660156 20.53125 -26.257812 21.1875 -25.125 C 21.519531 -24.707031 21.6875 -23.257812 21.6875 -20.78125 C 21.6875 -18.3125 21.519531 -16.75 21.1875 -16.09375 C 20.53125 -14.957031 19.273438 -13.554688 17.421875 -11.890625 C 15.578125 -10.222656 14.132812 -9.390625 13.09375 -9.390625 L 11.3125 -9.390625 Z M 11.3125 -15.15625 "/></g></g></g><g fill="#763c00" fill-opacity="1"><g transform="translate(187.355297, 200.996295)"><g><path d="M 6.65625 -28.921875 C 8.769531 -30.859375 10.378906 -31.828125 11.484375 -31.828125 C 12.585938 -31.828125 14.195312 -30.859375 16.3125 -28.921875 C 18.425781 -26.984375 19.738281 -25.390625 20.25 -24.140625 C 20.582031 -23.273438 20.75 -21.320312 20.75 -18.28125 L 20.75 0 L 14.578125 0 L 14.578125 -6.703125 L 8.40625 -6.703125 L 8.40625 0 L 2.234375 0 L 2.234375 -18.28125 C 2.234375 -21.320312 2.398438 -23.273438 2.734375 -24.140625 C 3.234375 -25.390625 4.539062 -26.984375 6.65625 -28.921875 Z M 8.40625 -18.28125 L 8.40625 -12.0625 L 14.578125 -12.0625 L 14.578125 -18.28125 C 14.578125 -20.726562 14.457031 -22.226562 14.21875 -22.78125 C 13.976562 -23.332031 13.566406 -23.910156 12.984375 -24.515625 C 12.398438 -25.128906 11.898438 -25.4375 11.484375 -25.4375 C 11.066406 -25.4375 10.566406 -25.128906 9.984375 -24.515625 C 9.410156 -23.910156 9.003906 -23.332031 8.765625 -22.78125 C 8.523438 -22.226562 8.40625 -20.726562 8.40625 -18.28125 Z M 8.40625 -18.28125 "/></g></g></g><g fill="#763c00" fill-opacity="1"><g transform="translate(215.19884, 200.996295)"><g><path d="M 2.5 0 L 2.5 -31.296875 L 8.671875 -31.296875 L 8.671875 0 Z M 2.5 0 "/></g></g></g><g fill="#763c00" fill-opacity="1"><g transform="translate(231.243711, 200.996295)"><g><path d="M 7.28125 -17.75 L 7.28125 -13.015625 C 7.28125 -10.566406 7.398438 -9.066406 7.640625 -8.515625 C 7.878906 -7.960938 8.289062 -7.378906 8.875 -6.765625 C 9.457031 -6.160156 9.972656 -5.859375 10.421875 -5.859375 C 10.867188 -5.859375 11.429688 -6.171875 12.109375 -6.796875 C 12.796875 -7.421875 13.273438 -7.988281 13.546875 -8.5 C 13.722656 -9 13.828125 -9.742188 13.859375 -10.734375 L 10.765625 -10.734375 L 10.765625 -15.6875 L 19.671875 -15.6875 L 19.671875 0 L 15.328125 0 L 14.796875 -3.046875 C 12.742188 -0.660156 11.222656 0.53125 10.234375 0.53125 C 9.253906 0.53125 7.695312 -0.441406 5.5625 -2.390625 C 3.4375 -4.335938 2.117188 -5.925781 1.609375 -7.15625 C 1.285156 -7.925781 1.125 -9.878906 1.125 -13.015625 L 1.125 -17.75 C 1.125 -21.46875 1.421875 -23.847656 2.015625 -24.890625 C 2.609375 -25.941406 3.878906 -27.359375 5.828125 -29.140625 C 7.785156 -30.929688 9.238281 -31.828125 10.1875 -31.828125 C 11.832031 -31.828125 13.710938 -30.875 15.828125 -28.96875 C 17.941406 -27.0625 19.28125 -24.972656 19.84375 -22.703125 L 14.890625 -19.265625 C 14.410156 -20.878906 13.648438 -22.367188 12.609375 -23.734375 C 11.566406 -25.109375 10.835938 -25.796875 10.421875 -25.796875 C 9.671875 -25.796875 8.820312 -25.066406 7.875 -23.609375 C 7.476562 -23.035156 7.28125 -21.082031 7.28125 -17.75 Z M 7.28125 -17.75 "/></g></g></g><g fill="#763c00" fill-opacity="1"><g transform="translate(257.567721, 200.996295)"><g><path d="M 9.25 -23.640625 L 9.296875 -21.71875 L 9.296875 0 L 3.125 0 L 3.125 -19.140625 C 3.125 -21.640625 2.953125 -23.394531 2.609375 -24.40625 C 2.265625 -25.414062 1.546875 -26.640625 0.453125 -28.078125 L 5.8125 -31.828125 C 6.675781 -31.265625 7.476562 -30.296875 8.21875 -28.921875 C 10.570312 -30.859375 12.164062 -31.828125 13 -31.828125 C 13.84375 -31.828125 15.164062 -31.046875 16.96875 -29.484375 C 18.769531 -27.921875 19.894531 -26.816406 20.34375 -26.171875 C 20.789062 -25.535156 21.015625 -24.691406 21.015625 -23.640625 L 21.015625 0 L 14.796875 0 L 14.796875 -22.75 C 14.796875 -23.019531 14.679688 -23.351562 14.453125 -23.75 C 14.234375 -24.15625 13.890625 -24.613281 13.421875 -25.125 C 12.960938 -25.632812 12.53125 -25.890625 12.125 -25.890625 C 11.726562 -25.890625 11.234375 -25.65625 10.640625 -25.1875 C 10.046875 -24.726562 9.582031 -24.210938 9.25 -23.640625 Z M 9.25 -23.640625 "/></g></g></g><g fill="#763c00" fill-opacity="1"><g transform="translate(191.243603, 228.907069)"><g><path d="M 3.933594 0 L 3.933594 -4.816406 L 6.367188 -4.816406 C 11.257812 -4.816406 11.273438 -12.597656 6.367188 -12.597656 L 1.410156 -12.597656 L 1.410156 0 Z M 3.933594 -7.269531 L 3.933594 -10.089844 L 6.15625 -10.089844 C 7.851562 -10.089844 7.851562 -7.269531 6.15625 -7.269531 Z M 3.933594 -7.269531 "/></g></g></g><g fill="#763c00" fill-opacity="1"><g transform="translate(202.498987, 228.907069)"><g><path d="M 1.410156 -12.613281 L 1.410156 0 L 7.9375 0 L 7.9375 -2.523438 L 3.933594 -2.523438 L 3.933594 -12.613281 Z M 1.410156 -12.613281 "/></g></g></g><g fill="#763c00" fill-opacity="1"><g transform="translate(211.813836, 228.907069)"><g><path d="M 0.28125 0 L 3.140625 0 L 3.632812 -1.359375 L 7.816406 -1.359375 L 8.328125 0 L 11.167969 0 L 5.855469 -13.074219 L 5.59375 -13.074219 Z M 4.550781 -3.722656 L 5.734375 -7.003906 L 6.878906 -3.722656 Z M 4.550781 -3.722656 "/></g></g></g><g fill="#763c00" fill-opacity="1"><g transform="translate(223.951285, 228.907069)"><g><path d="M 3.933594 -6.863281 L 10.320312 0.265625 L 10.992188 0.265625 L 10.992188 -12.597656 L 8.449219 -12.597656 L 8.449219 -5.46875 L 2.082031 -12.878906 L 1.410156 -12.878906 L 1.410156 0 L 3.933594 0 Z M 3.933594 -6.863281 "/></g></g></g><g fill="#763c00" fill-opacity="1"><g transform="translate(236.988434, 228.907069)"><g><path d="M 3.933594 -6.863281 L 10.320312 0.265625 L 10.992188 0.265625 L 10.992188 -12.597656 L 8.449219 -12.597656 L 8.449219 -5.46875 L 2.082031 -12.878906 L 1.410156 -12.878906 L 1.410156 0 L 3.933594 0 Z M 3.933594 -6.863281 "/></g></g></g><g fill="#763c00" fill-opacity="1"><g transform="translate(250.025582, 228.907069)"><g><path d="M 7.9375 0 L 7.9375 -2.523438 L 3.933594 -2.523438 L 3.933594 -5.046875 L 7.25 -5.046875 L 7.25 -7.570312 L 3.933594 -7.570312 L 3.933594 -10.089844 L 7.726562 -10.089844 L 7.726562 -12.613281 L 1.410156 -12.613281 L 1.410156 0 Z M 7.9375 0 "/></g></g></g><g fill="#763c00" fill-opacity="1"><g transform="translate(259.534478, 228.907069)"><g><path d="M 7.691406 0 L 10.550781 0 L 7.621094 -5.203125 C 11.328125 -6.28125 10.886719 -12.613281 6.386719 -12.613281 L 1.410156 -12.613281 L 1.410156 0 L 3.933594 0 L 3.933594 -4.816406 L 5.152344 -4.816406 Z M 3.933594 -7.269531 L 3.933594 -10.089844 L 6.15625 -10.089844 C 7.867188 -10.089844 7.867188 -7.269531 6.15625 -7.269531 Z M 3.933594 -7.269531 "/></g></g></g><g fill="#763c00" fill-opacity="1"><g transform="translate(270.966272, 228.907069)"><g/></g></g><g fill="#763c00" fill-opacity="1"><g transform="translate(276.594095, 228.907069)"><g><path d="M 3.933594 0 L 3.933594 -4.816406 L 6.367188 -4.816406 C 11.257812 -4.816406 11.273438 -12.597656 6.367188 -12.597656 L 1.410156 -12.597656 L 1.410156 0 Z M 3.933594 -7.269531 L 3.933594 -10.089844 L 6.15625 -10.089844 C 7.851562 -10.089844 7.851562 -7.269531 6.15625 -7.269531 Z M 3.933594 -7.269531 "/></g></g></g><g fill="#763c00" fill-opacity="1"><g transform="translate(287.849484, 228.907069)"><g><path d="M 7.691406 0 L 10.550781 0 L 7.621094 -5.203125 C 11.328125 -6.28125 10.886719 -12.613281 6.386719 -12.613281 L 1.410156 -12.613281 L 1.410156 0 L 3.933594 0 L 3.933594 -4.816406 L 5.152344 -4.816406 Z M 3.933594 -7.269531 L 3.933594 -10.089844 L 6.15625 -10.089844 C 7.867188 -10.089844 7.867188 -7.269531 6.15625 -7.269531 Z M 3.933594 -7.269531 "/></g></g></g><g fill="#763c00" fill-opacity="1"><g transform="translate(299.281278, 228.907069)"><g><path d="M 7.480469 0.175781 C 16.160156 0.175781 16.160156 -12.828125 7.480469 -12.828125 C -1.199219 -12.828125 -1.199219 0.175781 7.480469 0.175781 Z M 7.480469 -2.433594 C 2.433594 -2.433594 2.433594 -10.234375 7.480469 -10.234375 C 12.527344 -10.234375 12.527344 -2.433594 7.480469 -2.433594 Z M 7.480469 -2.433594 "/></g></g></g></svg>